<svg width="29" height="29" fill="none" xmlns="http://www.w3.org/2000/svg"><path d="M18.125 27.49h-7.25c-6.561 0-9.364-2.804-9.364-9.365v-7.25c0-6.561 2.803-9.365 9.364-9.365h7.25c6.561 0 9.365 2.804 9.365 9.365v7.25c0 6.561-2.804 9.364-9.365 9.364zm-7.25-24.167c-5.57 0-7.552 1.982-7.552 7.552v7.25c0 5.57 1.982 7.552 7.552 7.552h7.25c5.57 0 7.552-1.982 7.552-7.552v-7.25c0-5.57-1.982-7.552-7.552-7.552h-7.25z" fill="#fff"/><path d="M25.955 9.498H3.045a.905.905 0 110-1.813h22.91a.905.905 0 110 1.813z" fill="#fff"/><path d="M10.295 9.328a.913.913 0 01-.906-.906V2.55c0-.496.41-.907.906-.907.495 0 .906.411.906.907v5.872c0 .495-.41.906-.906.906zm8.41-.543a.913.913 0 01-.906-.907V2.55c0-.496.41-.907.906-.907.496 0 .906.411.906.907v5.328a.897.897 0 01-.906.907zM13.4 21.895c-.435 0-.845-.109-1.22-.314-.822-.483-1.305-1.45-1.305-2.67v-2.9c0-1.221.483-2.2 1.317-2.683.834-.483 1.921-.41 2.973.205l2.513 1.45c1.051.604 1.667 1.51 1.667 2.477 0 .967-.616 1.873-1.68 2.477l-2.512 1.45c-.58.339-1.185.508-1.753.508zm.012-7.069c-.12 0-.23.024-.314.073-.253.145-.41.556-.41 1.111v2.9c0 .544.157.955.41 1.112.254.145.69.073 1.16-.205l2.514-1.45c.47-.278.76-.617.76-.907 0-.29-.277-.628-.76-.906l-2.514-1.45c-.314-.181-.616-.278-.845-.278z" fill="#fff"/></svg>