<svg width="58" height="58" fill="none" xmlns="http://www.w3.org/2000/svg"><path d="M29 35.646c-.99 0-1.813-.822-1.813-1.813V21.75c0-.99.822-1.813 1.813-1.813.99 0 1.813.822 1.813 1.813v12.083c0 .991-.822 1.813-1.813 1.813zm0 7.854a3.65 3.65 0 01-.483-.048 1.537 1.537 0 01-.435-.145 1.827 1.827 0 01-.435-.218l-.363-.29a2.541 2.541 0 01-.7-1.716c0-.628.265-1.256.7-1.715l.363-.29c.145-.097.29-.17.435-.218.145-.072.29-.12.435-.145.314-.073.652-.073.942 0 .17.024.314.072.46.145.144.048.29.12.434.218l.363.29c.435.459.7 1.087.7 1.715a2.54 2.54 0 01-.7 1.716l-.363.29c-.145.097-.29.17-.435.218-.145.072-.29.12-.459.145A2.956 2.956 0 0129 43.5z" fill="#fff"/><path d="M43.645 53.553h-29.29c-4.713 0-8.313-1.715-10.15-4.809-1.813-3.093-1.57-7.08.725-11.213l14.645-26.342C21.992 6.84 25.327 4.447 29 4.447c3.673 0 7.008 2.392 9.425 6.742L53.07 37.555c2.296 4.133 2.562 8.096.725 11.213-1.837 3.07-5.438 4.785-10.15 4.785zM29 8.072c-2.272 0-4.495 1.74-6.26 4.881L8.12 39.32c-1.643 2.948-1.91 5.655-.773 7.613 1.135 1.957 3.649 3.02 7.032 3.02h29.29c3.384 0 5.873-1.063 7.033-3.02 1.16-1.958.87-4.64-.774-7.613L35.26 12.953C33.495 9.812 31.272 8.072 29 8.072z" fill="#fff"/></svg>